# xmcd CD database file
#
# Track frame offsets:
#	150
#	16665
#	34850
#	47369
#	62362
#	81178
#	94106
#	109609
#	126375
#	144854
#	157210
#	178947
#	197443
#	211075
#	227383
#	242486
#	261415
#	273044
#
# Disc length: 3888 seconds
#
# Revision: 2
# Processed by: cddbd v1.5.2PL0 Copyright (c) Steve Scherf et al.
# Submitted via: CDex 1.50Beta7
#
DISCID=e30f2e12
DTITLE=Paola - Ihre Grossen Erfolge
DYEAR=1996
DGENRE=Schlager
TTITLE0=Tränen einer Nacht ('83)
TTITLE1=Santa Marguerita ('83)
TTITLE2=Was heut' nicht ist ('74)
TTITLE3=Wie man sich bettet ('79)
TTITLE4=Engel brauchen Liebe ('83)
TTITLE5=Weisse Rosen aus Athen ('74)
TTITLE6=Nah beim Regenbogen ('83)
TTITLE7=Träume mal schön von Hawaii ('83)
TTITLE8=Wenn du heimkommst ('82)
TTITLE9=Ole O'cangaceiro ('74)
TTITLE10=Wahrheit und Liebe ('85)
TTITLE11=Die Nacht der Nächte ('84)
TTITLE12=Das Spiel das wir spielen ('74)
TTITLE13=Aloha Oe ('74)
TTITLE14=Zeig mir den Stern der Liebe ('74)
TTITLE15=Ich hab' ins Paradies gesehn ('82)
TTITLE16=Morgen bekommst du mehr von mir ('77)
TTITLE17=Zwischen dir und mir ('78)
EXTD=YEAR: 1996
EXTT0=
EXTT1=
EXTT2=
EXTT3=
EXTT4=
EXTT5=
EXTT6=
EXTT7=
EXTT8=
EXTT9=
EXTT10=
EXTT11=
EXTT12=
EXTT13=
EXTT14=
EXTT15=
EXTT16=
EXTT17=
PLAYORDER=
